<?xml version="1.0" encoding="UTF-8" standalone="no"?>
<svg
   xmlns:dc="http://purl.org/dc/elements/1.1/"
   xmlns:cc="http://creativecommons.org/ns#"
   xmlns:rdf="http://www.w3.org/1999/02/22-rdf-syntax-ns#"
   xmlns:svg="http://www.w3.org/2000/svg"
   xmlns="http://www.w3.org/2000/svg"
   xmlns:sodipodi="http://sodipodi.sourceforge.net/DTD/sodipodi-0.dtd"
   xmlns:inkscape="http://www.inkscape.org/namespaces/inkscape"
   x="0px"
   y="0px"
   width="32px"
   height="16px"
   viewBox="0 0 32 16"
   id="svg3021"
   version="1.1"
   inkscape:version="0.48.4 r9939"
   sodipodi:docname="search.svg">
  <metadata
     id="metadata3035">
    <rdf:RDF>
      <cc:Work
         rdf:about="">
        <dc:format>image/svg+xml</dc:format>
        <dc:type
           rdf:resource="http://purl.org/dc/dcmitype/StillImage" />
        <dc:title></dc:title>
      </cc:Work>
    </rdf:RDF>
  </metadata>
  <defs
     id="defs3033" />
  <sodipodi:namedview
     pagecolor="#ffffff"
     bordercolor="#666666"
     borderopacity="1"
     objecttolerance="10"
     gridtolerance="10"
     guidetolerance="10"
     inkscape:pageopacity="0"
     inkscape:pageshadow="2"
     inkscape:window-width="1366"
     inkscape:window-height="745"
     id="namedview3031"
     showgrid="false"
     inkscape:zoom="11.46875"
     inkscape:cx="14.474114"
     inkscape:cy="8"
     inkscape:window-x="-8"
     inkscape:window-y="-8"
     inkscape:window-maximized="1"
     inkscape:current-layer="svg3021" />
  <g
     transform="translate(0, 0)"
     id="g3023">
    <polygon
       fill="#ffffff"
       points="8,11.4 2.6,6 4,4.6 8,8.6 12,4.6 13.4,6 "
       id="polygon3025"
       style="fill:#6980b4;fill-opacity:1" />
  </g>
  <g
     transform="translate(16, 0)"
     id="g3027">
    <path
       fill="#ffffff"
       d="M12.7,11.3c0.9-1.2,1.4-2.6,1.4-4.2C14.1,3.2,11,0,7.1,0S0,3.2,0,7.1c0,3.9,3.2,7.1,7.1,7.1  c1.6,0,3.1-0.5,4.2-1.4l3,3c0.2,0.2,0.5,0.3,0.7,0.3s0.5-0.1,0.7-0.3c0.4-0.4,0.4-1,0-1.4L12.7,11.3z M7.1,12.1  C4.3,12.1,2,9.9,2,7.1S4.3,2,7.1,2s5.1,2.3,5.1,5.1S9.9,12.1,7.1,12.1z"
       id="path3029"
       style="fill:#6980b4;fill-opacity:1" />
  </g>
</svg>
